<svg t="1698584261544" class="icon" viewBox="0 0 1024 1024" version="1.1" xmlns="http://www.w3.org/2000/svg" p-id="886" width="200" height="200"><path d="M867.84 809.6l-146.752-147.008a313.28 313.28 0 0 0 65.472-192.704 314.24 314.24 0 0 0-92.672-223.616A314.24 314.24 0 0 0 470.08 153.6c-84.48 0-164.032 33.024-223.744 92.672A313.6 313.6 0 0 0 153.6 469.888a314.24 314.24 0 0 0 92.736 223.616 314.112 314.112 0 0 0 223.744 92.672c70.72 0 137.792-23.04 192.768-65.408l146.816 147.008a8.64 8.64 0 0 0 12.16 0l46.08-45.888a8.64 8.64 0 0 0 0-12.224zM637.184 636.928a235.136 235.136 0 0 1-167.04 69.12 235.136 235.136 0 0 1-167.168-69.12 234.816 234.816 0 0 1-69.184-167.04c0-62.976 24.576-122.368 69.184-166.912a235.136 235.136 0 0 1 167.104-69.184c63.104 0 122.496 24.448 167.104 69.12a234.816 234.816 0 0 1 69.248 167.04c0 63.04-24.576 122.368-69.248 167.04z" p-id="887"></path></svg>